<svg viewBox="309.6 187.49626865671644 68.80000000000007 275.22388059701495" fill="none" xmlns="http://www.w3.org/2000/svg" xmlns:xlink="http://www.w3.org/1999/xlink" overflow="visible" width="68.80000000000007px" height="275.22388059701495px"><g id="Master/Stickers/Lamp"><g id="Lamp"><path id="Fill 1" fill-rule="evenodd" clip-rule="evenodd" d="M341.557 451.051H346.746V239.659H341.557V451.051Z" fill="#E96600"/><path id="Combined Shape" fill-rule="evenodd" clip-rule="evenodd" d="M354.878 322.19C354.878 322.466 355.102 322.69 355.378 322.69C355.654 322.69 355.878 322.466 355.878 322.19V272.346C355.878 272.07 355.654 271.846 355.378 271.846C355.102 271.846 354.878 272.07 354.878 272.346V322.19Z" fill="black"/><path id="Fill 3" fill-rule="evenodd" clip-rule="evenodd" d="M371.801 455.91L351.078 448.783C346.589 447.24 341.712 447.24 337.224 448.783L316.5 455.91V460.77H371.801V455.91Z" fill="#E96600"/><path id="Lamp_2" fill-rule="evenodd" clip-rule="evenodd" d="M366.804 272.346H321.497V193.5H366.804V272.346ZM353.762 322.972C353.762 323.873 354.493 324.604 355.394 324.604C356.295 324.604 357.026 323.873 357.026 322.972V315.9C357.026 314.999 356.295 314.268 355.394 314.268C354.493 314.268 353.762 314.999 353.762 315.9V322.972Z" fill="#FCBD21"/><path id="Fill 14" fill-rule="evenodd" clip-rule="evenodd" d="M321.997 271.846H366.304V194H321.997V271.846ZM320.997 272.846H367.304V193H320.997V272.846Z" fill="black"/><path id="Fill 18" fill-rule="evenodd" clip-rule="evenodd" d="M355.394 314.769C354.77 314.769 354.262 315.277 354.262 315.901V322.973C354.262 323.597 354.77 324.105 355.394 324.105C356.018 324.105 356.526 323.597 356.526 322.973V315.901C356.526 315.277 356.018 314.769 355.394 314.769M355.394 325.105C354.218 325.105 353.262 324.149 353.262 322.973V315.901C353.262 314.725 354.218 313.769 355.394 313.769C356.57 313.769 357.526 314.725 357.526 315.901V322.973C357.526 324.149 356.57 325.105 355.394 325.105" fill="black"/></g></g></svg>